<svg version="1.2" xmlns="http://www.w3.org/2000/svg" viewBox="0 0 500 500" width="500" height="500">
	<title>Lucrev</title>
	<defs>
		<linearGradient id="g1" x2="1" gradientUnits="userSpaceOnUse" gradientTransform="matrix(493.385,0,0,188.529,0,154)">
			<stop offset="0" stop-color="#333"/>
			<stop offset="1" stop-color="#000"/>
		</linearGradient>
	</defs>
	<style>
		.s0 { fill: #333 } 
		.s1 { fill: url(#g1) } 
	</style>
	<g id="Layer 1">
		<g id="layer3 00000026843305705504586430000018201503657019854212 ">
			<g id="&lt;Group&gt;">
				<path id="path4769 00000054946164609671454730000012905376421294207922 " class="s0" d="m500 299.7l-62.9-113.6-16-28.1-20.1 25.4-69.5 90.9-64.2-89.6-16-24-18.7 22.7-69.6 90.9-58.8-84.2-18.7-28.1-17.4 29.4-61.5 108.3 36.1 21.4 45.4-78.9 57.5 80.3 17.4 24 17.4-22.7 69.5-90.9 64.2 89.6 17.4 24 17.4-22.7 66.8-88.3 46.8 85.6z"/>
			</g>
		</g>
		<g id="layer3 00000168080581032541840720000000136733254013805245 ">
			<path id="path4769 00000056429212163904482820000017214352043582668175 " class="s1" d="m493.4 295.7l-62.9-113.6-16-28.1-20.1 25.4-69.5 90.9-64.2-89.6-16-24-18.7 22.7-69.6 90.9-58.8-84.2-18.7-28.1-17.4 29.4-61.5 108.3 36.1 21.4 45.5-78.9 57.5 80.3 17.3 24 17.4-22.7 69.5-90.9 64.2 89.6 17.4 24 17.4-22.7 66.8-88.2 46.8 85.5z"/>
		</g>
	</g>
</svg>